<mxfile host="app.diagrams.net" modified="2022-06-28T01:25:13.697Z" agent="5.0 (Windows NT 10.0; Win64; x64) AppleWebKit/537.36 (KHTML, like Gecko) Chrome/102.0.0.0 Safari/537.36" etag="oBsQOCREb9u7hTS8cPI9" version="20.0.3" type="github">
  <diagram id="_CU-wkr0ECIHKamqSVVa" name="Page-1">
    <mxGraphModel dx="1384" dy="741" grid="0" gridSize="10" guides="1" tooltips="1" connect="1" arrows="1" fold="1" page="1" pageScale="1" pageWidth="1169" pageHeight="827" math="0" shadow="0">
      <root>
        <mxCell id="0" />
        <mxCell id="1" parent="0" />
        <mxCell id="rBOmMX9vD9h0oegpahEe-17" style="edgeStyle=orthogonalEdgeStyle;rounded=0;orthogonalLoop=1;jettySize=auto;html=1;" edge="1" parent="1" source="0JvhRE2ABpZllp1g98fl-1" target="rBOmMX9vD9h0oegpahEe-13">
          <mxGeometry relative="1" as="geometry" />
        </mxCell>
        <mxCell id="0JvhRE2ABpZllp1g98fl-1" value="AWS Cloud" style="sketch=0;outlineConnect=0;gradientColor=none;html=1;whiteSpace=wrap;fontSize=12;fontStyle=0;shape=mxgraph.aws4.group;grIcon=mxgraph.aws4.group_aws_cloud;strokeColor=#001FB8;fillColor=none;verticalAlign=top;align=left;spacingLeft=30;fontColor=#AAB7B8;dashed=0;" parent="1" vertex="1">
          <mxGeometry x="18" y="51" width="647" height="719" as="geometry" />
        </mxCell>
        <mxCell id="0JvhRE2ABpZllp1g98fl-13" value="" style="rounded=0;whiteSpace=wrap;html=1;strokeColor=#001FB8;fillColor=none;dashed=1;" parent="1" vertex="1">
          <mxGeometry x="342" y="312" width="171" height="284" as="geometry" />
        </mxCell>
        <mxCell id="0JvhRE2ABpZllp1g98fl-8" value="" style="edgeStyle=orthogonalEdgeStyle;rounded=0;orthogonalLoop=1;jettySize=auto;html=1;" parent="1" source="5sEL3jwcuBLUHZtX0VmY-1" target="0JvhRE2ABpZllp1g98fl-2" edge="1">
          <mxGeometry relative="1" as="geometry" />
        </mxCell>
        <mxCell id="5sEL3jwcuBLUHZtX0VmY-1" value="Get and Add ART Records &lt;br&gt;to Queue Lambda&lt;br&gt;(Enqueue)" style="sketch=0;points=[[0,0,0],[0.25,0,0],[0.5,0,0],[0.75,0,0],[1,0,0],[0,1,0],[0.25,1,0],[0.5,1,0],[0.75,1,0],[1,1,0],[0,0.25,0],[0,0.5,0],[0,0.75,0],[1,0.25,0],[1,0.5,0],[1,0.75,0]];outlineConnect=0;fontColor=#232F3E;gradientColor=#F78E04;gradientDirection=north;fillColor=#D05C17;strokeColor=#ffffff;dashed=0;verticalLabelPosition=bottom;verticalAlign=top;align=center;html=1;fontSize=12;fontStyle=0;aspect=fixed;shape=mxgraph.aws4.resourceIcon;resIcon=mxgraph.aws4.lambda;" parent="1" vertex="1">
          <mxGeometry x="225" y="344" width="78" height="78" as="geometry" />
        </mxCell>
        <mxCell id="0JvhRE2ABpZllp1g98fl-9" value="" style="edgeStyle=orthogonalEdgeStyle;rounded=0;orthogonalLoop=1;jettySize=auto;html=1;" parent="1" source="5sEL3jwcuBLUHZtX0VmY-2" target="0JvhRE2ABpZllp1g98fl-2" edge="1">
          <mxGeometry relative="1" as="geometry" />
        </mxCell>
        <mxCell id="0JvhRE2ABpZllp1g98fl-11" value="" style="edgeStyle=orthogonalEdgeStyle;rounded=0;orthogonalLoop=1;jettySize=auto;html=1;" parent="1" source="5sEL3jwcuBLUHZtX0VmY-2" target="0JvhRE2ABpZllp1g98fl-4" edge="1">
          <mxGeometry relative="1" as="geometry" />
        </mxCell>
        <mxCell id="0JvhRE2ABpZllp1g98fl-14" value="Save Renewal&lt;br&gt;Letters In S3" style="edgeLabel;html=1;align=center;verticalAlign=middle;resizable=0;points=[];" parent="0JvhRE2ABpZllp1g98fl-11" vertex="1" connectable="0">
          <mxGeometry x="0.2266" y="1" relative="1" as="geometry">
            <mxPoint as="offset" />
          </mxGeometry>
        </mxCell>
        <mxCell id="0JvhRE2ABpZllp1g98fl-12" value="Save ART details&amp;nbsp;" style="edgeStyle=orthogonalEdgeStyle;rounded=0;orthogonalLoop=1;jettySize=auto;html=1;" parent="1" source="5sEL3jwcuBLUHZtX0VmY-2" target="0JvhRE2ABpZllp1g98fl-5" edge="1">
          <mxGeometry relative="1" as="geometry" />
        </mxCell>
        <mxCell id="5sEL3jwcuBLUHZtX0VmY-2" value="Receive from Queue&lt;br&gt;Lambda (Dequeue)" style="sketch=0;points=[[0,0,0],[0.25,0,0],[0.5,0,0],[0.75,0,0],[1,0,0],[0,1,0],[0.25,1,0],[0.5,1,0],[0.75,1,0],[1,1,0],[0,0.25,0],[0,0.5,0],[0,0.75,0],[1,0.25,0],[1,0.5,0],[1,0.75,0]];outlineConnect=0;fontColor=#232F3E;gradientColor=#F78E04;gradientDirection=north;fillColor=#D05C17;strokeColor=#ffffff;dashed=0;verticalLabelPosition=bottom;verticalAlign=top;align=center;html=1;fontSize=12;fontStyle=0;aspect=fixed;shape=mxgraph.aws4.resourceIcon;resIcon=mxgraph.aws4.lambda;" parent="1" vertex="1">
          <mxGeometry x="542" y="344" width="78" height="78" as="geometry" />
        </mxCell>
        <mxCell id="0JvhRE2ABpZllp1g98fl-10" value="" style="edgeStyle=orthogonalEdgeStyle;rounded=0;orthogonalLoop=1;jettySize=auto;html=1;" parent="1" source="0JvhRE2ABpZllp1g98fl-2" target="0JvhRE2ABpZllp1g98fl-3" edge="1">
          <mxGeometry relative="1" as="geometry" />
        </mxCell>
        <mxCell id="0JvhRE2ABpZllp1g98fl-2" value="Renewals Queue (SQS)" style="sketch=0;points=[[0,0,0],[0.25,0,0],[0.5,0,0],[0.75,0,0],[1,0,0],[0,1,0],[0.25,1,0],[0.5,1,0],[0.75,1,0],[1,1,0],[0,0.25,0],[0,0.5,0],[0,0.75,0],[1,0.25,0],[1,0.5,0],[1,0.75,0]];outlineConnect=0;fontColor=#232F3E;gradientColor=#FF4F8B;gradientDirection=north;fillColor=#BC1356;strokeColor=#ffffff;dashed=0;verticalLabelPosition=bottom;verticalAlign=top;align=center;html=1;fontSize=12;fontStyle=0;aspect=fixed;shape=mxgraph.aws4.resourceIcon;resIcon=mxgraph.aws4.sqs;" parent="1" vertex="1">
          <mxGeometry x="388.5" y="344" width="78" height="78" as="geometry" />
        </mxCell>
        <mxCell id="0JvhRE2ABpZllp1g98fl-3" value="Dead Letter Queue (DLQ)" style="sketch=0;points=[[0,0,0],[0.25,0,0],[0.5,0,0],[0.75,0,0],[1,0,0],[0,1,0],[0.25,1,0],[0.5,1,0],[0.75,1,0],[1,1,0],[0,0.25,0],[0,0.5,0],[0,0.75,0],[1,0.25,0],[1,0.5,0],[1,0.75,0]];outlineConnect=0;fontColor=#232F3E;gradientColor=#FF4F8B;gradientDirection=north;fillColor=#BC1356;strokeColor=#ffffff;dashed=0;verticalLabelPosition=bottom;verticalAlign=top;align=center;html=1;fontSize=12;fontStyle=0;aspect=fixed;shape=mxgraph.aws4.resourceIcon;resIcon=mxgraph.aws4.sqs;" parent="1" vertex="1">
          <mxGeometry x="388.5" y="465" width="78" height="78" as="geometry" />
        </mxCell>
        <mxCell id="0JvhRE2ABpZllp1g98fl-4" value="Renewal Letters &lt;br&gt;(S3) Bucket" style="sketch=0;points=[[0,0,0],[0.25,0,0],[0.5,0,0],[0.75,0,0],[1,0,0],[0,1,0],[0.25,1,0],[0.5,1,0],[0.75,1,0],[1,1,0],[0,0.25,0],[0,0.5,0],[0,0.75,0],[1,0.25,0],[1,0.5,0],[1,0.75,0]];outlineConnect=0;fontColor=#232F3E;gradientColor=#60A337;gradientDirection=north;fillColor=#277116;strokeColor=#ffffff;dashed=0;verticalLabelPosition=bottom;verticalAlign=top;align=center;html=1;fontSize=12;fontStyle=0;aspect=fixed;shape=mxgraph.aws4.resourceIcon;resIcon=mxgraph.aws4.s3;" parent="1" vertex="1">
          <mxGeometry x="542" y="573" width="78" height="78" as="geometry" />
        </mxCell>
        <mxCell id="0JvhRE2ABpZllp1g98fl-7" value="" style="edgeStyle=orthogonalEdgeStyle;rounded=0;orthogonalLoop=1;jettySize=auto;html=1;" parent="1" source="0JvhRE2ABpZllp1g98fl-6" target="5sEL3jwcuBLUHZtX0VmY-1" edge="1">
          <mxGeometry relative="1" as="geometry" />
        </mxCell>
        <mxCell id="0JvhRE2ABpZllp1g98fl-6" value="Event Bridge &lt;br&gt;Schedule to Trigger Lambda" style="sketch=0;points=[[0,0,0],[0.25,0,0],[0.5,0,0],[0.75,0,0],[1,0,0],[0,1,0],[0.25,1,0],[0.5,1,0],[0.75,1,0],[1,1,0],[0,0.25,0],[0,0.5,0],[0,0.75,0],[1,0.25,0],[1,0.5,0],[1,0.75,0]];outlineConnect=0;fontColor=#232F3E;gradientColor=#FF4F8B;gradientDirection=north;fillColor=#BC1356;strokeColor=#ffffff;dashed=0;verticalLabelPosition=bottom;verticalAlign=top;align=center;html=1;fontSize=12;fontStyle=0;aspect=fixed;shape=mxgraph.aws4.resourceIcon;resIcon=mxgraph.aws4.eventbridge;" parent="1" vertex="1">
          <mxGeometry x="70" y="344" width="78" height="78" as="geometry" />
        </mxCell>
        <mxCell id="0JvhRE2ABpZllp1g98fl-5" value="DynamoDB&amp;nbsp;&lt;br&gt;Data Store" style="outlineConnect=0;dashed=0;verticalLabelPosition=bottom;verticalAlign=top;align=center;html=1;shape=mxgraph.aws3.dynamo_db;fillColor=#2E73B8;gradientColor=none;strokeColor=#001FB8;" parent="1" vertex="1">
          <mxGeometry x="545" y="154" width="72" height="81" as="geometry" />
        </mxCell>
        <mxCell id="rBOmMX9vD9h0oegpahEe-14" value="" style="edgeStyle=orthogonalEdgeStyle;rounded=0;orthogonalLoop=1;jettySize=auto;html=1;" edge="1" parent="1" source="rBOmMX9vD9h0oegpahEe-13" target="0JvhRE2ABpZllp1g98fl-1">
          <mxGeometry relative="1" as="geometry" />
        </mxCell>
        <mxCell id="rBOmMX9vD9h0oegpahEe-13" value="Corporate data center" style="points=[[0,0],[0.25,0],[0.5,0],[0.75,0],[1,0],[1,0.25],[1,0.5],[1,0.75],[1,1],[0.75,1],[0.5,1],[0.25,1],[0,1],[0,0.75],[0,0.5],[0,0.25]];outlineConnect=0;gradientColor=none;html=1;whiteSpace=wrap;fontSize=12;fontStyle=0;container=1;pointerEvents=0;collapsible=0;recursiveResize=0;shape=mxgraph.aws4.group;grIcon=mxgraph.aws4.group_corporate_data_center;strokeColor=#5A6C86;fillColor=none;verticalAlign=top;align=left;spacingLeft=30;fontColor=#5A6C86;dashed=0;" vertex="1" parent="1">
          <mxGeometry x="753" y="52.5" width="398" height="716" as="geometry" />
        </mxCell>
        <mxCell id="rBOmMX9vD9h0oegpahEe-7" value="Renewal API&amp;nbsp;" style="outlineConnect=0;dashed=0;verticalLabelPosition=bottom;verticalAlign=top;align=center;html=1;shape=mxgraph.aws3.android;fillColor=#115193;gradientColor=none;" vertex="1" parent="rBOmMX9vD9h0oegpahEe-13">
          <mxGeometry x="80" y="115.5" width="73.5" height="84" as="geometry" />
        </mxCell>
        <mxCell id="rBOmMX9vD9h0oegpahEe-8" value="Genie API" style="outlineConnect=0;dashed=0;verticalLabelPosition=bottom;verticalAlign=top;align=center;html=1;shape=mxgraph.aws3.android;fillColor=#115193;gradientColor=none;" vertex="1" parent="rBOmMX9vD9h0oegpahEe-13">
          <mxGeometry x="80" y="361.5" width="73.5" height="84" as="geometry" />
        </mxCell>
        <mxCell id="rBOmMX9vD9h0oegpahEe-5" value="Renewal&lt;br&gt;Datasource" style="shape=cylinder3;whiteSpace=wrap;html=1;boundedLbl=1;backgroundOutline=1;size=15;" vertex="1" parent="rBOmMX9vD9h0oegpahEe-13">
          <mxGeometry x="227" y="104" width="91" height="107" as="geometry" />
        </mxCell>
        <mxCell id="rBOmMX9vD9h0oegpahEe-11" style="edgeStyle=orthogonalEdgeStyle;rounded=0;orthogonalLoop=1;jettySize=auto;html=1;" edge="1" parent="rBOmMX9vD9h0oegpahEe-13" source="rBOmMX9vD9h0oegpahEe-7" target="rBOmMX9vD9h0oegpahEe-5">
          <mxGeometry relative="1" as="geometry" />
        </mxCell>
        <mxCell id="rBOmMX9vD9h0oegpahEe-6" value="BPMi&lt;br&gt;Database" style="shape=cylinder3;whiteSpace=wrap;html=1;boundedLbl=1;backgroundOutline=1;size=15;" vertex="1" parent="rBOmMX9vD9h0oegpahEe-13">
          <mxGeometry x="231" y="336.5" width="90" height="134" as="geometry" />
        </mxCell>
        <mxCell id="rBOmMX9vD9h0oegpahEe-12" style="edgeStyle=orthogonalEdgeStyle;rounded=0;orthogonalLoop=1;jettySize=auto;html=1;" edge="1" parent="rBOmMX9vD9h0oegpahEe-13" source="rBOmMX9vD9h0oegpahEe-8" target="rBOmMX9vD9h0oegpahEe-6">
          <mxGeometry relative="1" as="geometry" />
        </mxCell>
        <mxCell id="rBOmMX9vD9h0oegpahEe-21" style="edgeStyle=orthogonalEdgeStyle;rounded=0;orthogonalLoop=1;jettySize=auto;html=1;" edge="1" parent="1" source="rBOmMX9vD9h0oegpahEe-8">
          <mxGeometry relative="1" as="geometry">
            <mxPoint x="754.666748046875" y="456" as="targetPoint" />
          </mxGeometry>
        </mxCell>
        <mxCell id="rBOmMX9vD9h0oegpahEe-22" style="edgeStyle=orthogonalEdgeStyle;rounded=0;orthogonalLoop=1;jettySize=auto;html=1;" edge="1" parent="1" source="rBOmMX9vD9h0oegpahEe-7">
          <mxGeometry relative="1" as="geometry">
            <mxPoint x="759" y="210" as="targetPoint" />
          </mxGeometry>
        </mxCell>
        <mxCell id="rBOmMX9vD9h0oegpahEe-23" value="ART Serverless Architecture" style="text;html=1;align=center;verticalAlign=middle;resizable=0;points=[];autosize=1;strokeColor=none;fillColor=none;fontSize=22;fontStyle=1" vertex="1" parent="1">
          <mxGeometry x="447" y="5" width="316" height="38" as="geometry" />
        </mxCell>
      </root>
    </mxGraphModel>
  </diagram>
</mxfile>
